<svg id="Component_83_1" data-name="Component 83 – 1" xmlns="http://www.w3.org/2000/svg" width="55" height="55" viewBox="0 0 55 55">
  <g id="Rectangle_1658" data-name="Rectangle 1658" fill="none" stroke="#034992" stroke-width="1">
    <rect width="55" height="55" stroke="none"/>
    <rect x="0.5" y="0.5" width="54" height="54" fill="none"/>
  </g>
  <g id="Group_1016" data-name="Group 1016" transform="translate(16.199 16)">
    <path id="Path_19" data-name="Path 19" d="M17.054,0H6.5A6.508,6.508,0,0,0,0,6.5V17.054a6.507,6.507,0,0,0,6.5,6.5H17.054a6.508,6.508,0,0,0,6.5-6.5V6.5A6.508,6.508,0,0,0,17.054,0Zm4.411,17.054a4.415,4.415,0,0,1-4.41,4.41H6.5a4.415,4.415,0,0,1-4.41-4.41V6.5A4.415,4.415,0,0,1,6.5,2.09H17.054a4.415,4.415,0,0,1,4.41,4.41V17.054Z" transform="translate(0 0)" fill="#034992"/>
    <path id="Path_20" data-name="Path 20" d="M47.032,40.97A6.064,6.064,0,1,0,53.1,47.034,6.071,6.071,0,0,0,47.032,40.97Zm0,10.04a3.976,3.976,0,1,1,3.976-3.976A3.98,3.98,0,0,1,47.032,51.01Z" transform="translate(-35.255 -35.257)" fill="#034992"/>
    <path id="Path_21" data-name="Path 21" d="M120.455,28.251a1.533,1.533,0,1,0,1.085.449A1.54,1.54,0,0,0,120.455,28.251Z" transform="translate(-102.355 -24.316)" fill="#034992"/>
  </g>
</svg>
