<svg id="Component_81_1" data-name="Component 81 – 1" xmlns="http://www.w3.org/2000/svg" width="188.895" height="167.342" viewBox="0 0 188.895 167.342">
  <g id="Group_1302" data-name="Group 1302">
    <g id="Background1" transform="translate(0 0)">
      <ellipse id="Ellipse_133" data-name="Ellipse 133" cx="82.486" cy="81.035" rx="82.486" ry="81.035" fill="#cbe9ff"/>
    </g>
    <g id="Object" transform="translate(22.53 18.151)">
      <g id="Group_1301" data-name="Group 1301">
        <path id="Path_1304" data-name="Path 1304" d="M410.5,692.87l-7.062-1.146c-1.456-.236-2.315-1.122-1.908-1.968L430.8,628.935c.407-.846,1.932-1.344,3.388-1.108l7.062,1.146c1.457.236,2.315,1.122,1.908,1.968l-29.274,60.821C413.479,692.608,411.955,693.107,410.5,692.87Z" transform="translate(-380.901 -543.738)" fill="#124460"/>
        <path id="Path_1305" data-name="Path 1305" d="M592.04,692.87l7.062-1.146c1.456-.236,2.315-1.122,1.908-1.968l-29.274-60.822c-.407-.846-1.932-1.344-3.388-1.108l-7.062,1.146c-1.456.236-2.315,1.122-1.908,1.968l29.274,60.821C589.059,692.608,590.583,693.107,592.04,692.87Z" transform="translate(-498.395 -543.738)" fill="#124460"/>
        <ellipse id="Ellipse_134" data-name="Ellipse 134" cx="60.535" cy="59.47" rx="60.535" ry="59.47" fill="#cb5840"/>
        <ellipse id="Ellipse_135" data-name="Ellipse 135" cx="39.952" cy="39.249" rx="39.952" ry="39.249" transform="translate(20.583 20.221)" fill="#fa2"/>
        <ellipse id="Ellipse_136" data-name="Ellipse 136" cx="22.219" cy="21.828" rx="22.219" ry="21.828" transform="translate(38.316 37.641)" fill="#fff"/>
        <ellipse id="Ellipse_137" data-name="Ellipse 137" cx="12.172" cy="11.957" rx="12.172" ry="11.957" transform="translate(48.363 47.512)" fill="#cb5840"/>
        <path id="Path_1306" data-name="Path 1306" d="M626.308,338.141l1.549,3.059,34.209-16.734-11.1-.559,6.239-9.041L623,331.6l1.555,3.071L569.35,361.7l-1.558-3.07-12.136,11.94,17.011-2.331-1.558-3.07Z" transform="translate(-495.701 -310.832)" fill="#103947"/>
      </g>
    </g>
  </g>
</svg>
