<svg xmlns="http://www.w3.org/2000/svg" xmlns:xlink="http://www.w3.org/1999/xlink" width="133.427" height="170.644" viewBox="0 0 133.427 170.644">
  <defs>
    <clipPath id="clip-path">
      <path id="Path_1395" data-name="Path 1395" d="M290.411,119.806c0,25.3-20.506,44.574-45.8,44.574s-45.8-19.279-45.8-44.574a45.8,45.8,0,1,1,91.6,0Z" transform="translate(-198.809 -74.004)" fill="none"/>
    </clipPath>
  </defs>
  <g id="Group_1380" data-name="Group 1380" transform="translate(-175.429 -49.69)">
    <g id="Group_1371" data-name="Group 1371" transform="translate(176.78 152.64)">
      <g id="Group_1370" data-name="Group 1370">
        <g id="Group_1368" data-name="Group 1368" transform="translate(67.021 1.653)">
          <path id="Path_1386" data-name="Path 1386" d="M276.888,231.1l-23.91-45.567L289.8,166.6l23.91,45.567a2.468,2.468,0,0,1-1.789,3.758l-17.971,1.159a2.192,2.192,0,0,0-1.57.807L280.99,231.827A2.473,2.473,0,0,1,276.888,231.1Z" transform="translate(-251.964 -166.6)" fill="#034992"/>
          <path id="Path_1387" data-name="Path 1387" d="M251.845,184.745l37.234-15.9,10.016,14.888c-10.125,9.387-22.081,15.229-35.43,18.375Z" transform="translate(-251.845 -166.837)" fill="#034992" opacity="0.21" style="mix-blend-mode: multiply;isolation: isolate"/>
        </g>
        <g id="Group_1369" data-name="Group 1369">
          <path id="Path_1388" data-name="Path 1388" d="M213.513,228.58l24.433-43.734-36.2-20.094-24.433,43.734a2.469,2.469,0,0,0,1.669,3.813l17.924,1.73a2.192,2.192,0,0,1,1.544.857l10.937,14.292A2.472,2.472,0,0,0,213.513,228.58Z" transform="translate(-176.939 -164.752)" fill="#034992"/>
          <path id="Path_1389" data-name="Path 1389" d="M243.011,179.356l-41.239-8.589L194.826,183.3c7.782,9.943,19.9,15.333,35.858,16.691Z" transform="translate(-178.822 -165.385)" fill="#034992" opacity="0.21" style="mix-blend-mode: multiply;isolation: isolate"/>
        </g>
      </g>
    </g>
    <path id="Path_1390" data-name="Path 1390" d="M244.991,50.935l1.345,1.452a3.882,3.882,0,0,0,5.087.535l1.617-1.142a3.883,3.883,0,0,1,5.573,1.185l1.013,1.7a3.882,3.882,0,0,0,4.865,1.58l1.819-.78a3.882,3.882,0,0,1,5.2,2.317l.638,1.874a3.882,3.882,0,0,0,4.429,2.557l1.942-.385a3.881,3.881,0,0,1,4.61,3.348l.234,1.966a3.882,3.882,0,0,0,3.8,3.422l1.98.028a3.881,3.881,0,0,1,3.812,4.234l-.18,1.971a3.883,3.883,0,0,0,3.006,4.138l1.931.438a3.882,3.882,0,0,1,2.849,4.934l-.586,1.891a3.883,3.883,0,0,0,2.08,4.673l1.8.829a3.882,3.882,0,0,1,1.76,5.419l-.965,1.728a3.882,3.882,0,0,0,1.063,5l1.585,1.186a3.882,3.882,0,0,1,.6,5.665l-1.3,1.49a3.881,3.881,0,0,0,0,5.114l1.3,1.489a3.883,3.883,0,0,1-.6,5.666l-1.585,1.186a3.882,3.882,0,0,0-1.063,5l.965,1.729a3.881,3.881,0,0,1-1.76,5.418l-1.8.83a3.882,3.882,0,0,0-2.08,4.672l.586,1.891a3.883,3.883,0,0,1-2.849,4.934l-1.931.438a3.882,3.882,0,0,0-3.006,4.137l.18,1.972a3.882,3.882,0,0,1-3.812,4.234l-1.98.027a3.883,3.883,0,0,0-3.8,3.422l-.234,1.966a3.883,3.883,0,0,1-4.61,3.349l-1.942-.385a3.881,3.881,0,0,0-4.429,2.557l-.638,1.874a3.882,3.882,0,0,1-5.2,2.317l-1.819-.78a3.882,3.882,0,0,0-4.865,1.581l-1.013,1.7a3.882,3.882,0,0,1-5.573,1.185l-1.617-1.141a3.881,3.881,0,0,0-5.087.534l-1.345,1.453a3.884,3.884,0,0,1-5.7,0l-1.345-1.453a3.881,3.881,0,0,0-5.087-.534l-1.618,1.141a3.882,3.882,0,0,1-5.572-1.185l-1.013-1.7a3.882,3.882,0,0,0-4.865-1.581l-1.819.78a3.882,3.882,0,0,1-5.2-2.317l-.638-1.874a3.881,3.881,0,0,0-4.429-2.557l-1.942.385a3.882,3.882,0,0,1-4.609-3.349l-.234-1.966a3.882,3.882,0,0,0-3.8-3.422l-1.979-.027a3.883,3.883,0,0,1-3.812-4.234l.18-1.972a3.88,3.88,0,0,0-3.006-4.137l-1.93-.438a3.882,3.882,0,0,1-2.849-4.934l.585-1.891a3.881,3.881,0,0,0-2.08-4.672l-1.8-.83a3.881,3.881,0,0,1-1.761-5.418l.966-1.729a3.881,3.881,0,0,0-1.064-5l-1.585-1.186a3.883,3.883,0,0,1-.6-5.666l1.3-1.489a3.883,3.883,0,0,0,0-5.114l-1.3-1.49a3.882,3.882,0,0,1,.6-5.665l1.585-1.186a3.881,3.881,0,0,0,1.064-5l-.966-1.728a3.882,3.882,0,0,1,1.761-5.419l1.8-.829a3.881,3.881,0,0,0,2.08-4.673l-.585-1.891a3.881,3.881,0,0,1,2.849-4.934l1.93-.438a3.882,3.882,0,0,0,3.006-4.138l-.18-1.971a3.882,3.882,0,0,1,3.812-4.234l1.979-.028a3.881,3.881,0,0,0,3.8-3.422l.234-1.966a3.881,3.881,0,0,1,4.609-3.348l1.942.385a3.882,3.882,0,0,0,4.429-2.557l.638-1.874a3.882,3.882,0,0,1,5.2-2.317l1.819.78a3.882,3.882,0,0,0,4.865-1.58l1.013-1.7a3.882,3.882,0,0,1,5.572-1.185l1.618,1.142a3.882,3.882,0,0,0,5.087-.535l1.345-1.452A3.882,3.882,0,0,1,244.991,50.935Z" transform="translate(0 0)" fill="#ffc000"/>
    <g id="Group_1378" data-name="Group 1378" transform="translate(180.611 55.84)">
      <g id="Group_1372" data-name="Group 1372" transform="translate(15.311 23.745)">
        <path id="Path_1391" data-name="Path 1391" d="M290.787,129.331c0,25.531-20.7,44.989-46.228,44.989s-46.227-19.458-46.227-44.989a46.227,46.227,0,1,1,92.454,0Z" transform="translate(-198.333 -83.103)" fill="#ffc30d"/>
      </g>
      <g id="Group_1373" data-name="Group 1373">
        <path id="Path_1392" data-name="Path 1392" d="M242.758,178.149c-34.506,0-61.537-26.377-61.537-60.049a61.537,61.537,0,0,1,123.075,0C304.3,151.772,277.265,178.149,242.758,178.149Z" transform="translate(-181.221 -56.564)" fill="#fd0"/>
      </g>
      <path id="Path_1393" data-name="Path 1393" d="M243.76,66.136a53.083,53.083,0,0,0-53.023,53.023c0,28.841,23.29,51.433,53.023,51.433S296.784,148,296.784,119.159A53.083,53.083,0,0,0,243.76,66.136Z" transform="translate(-182.223 -57.572)" fill="#f0a700"/>
      <path id="Path_1394" data-name="Path 1394" d="M243.914,69.019A51.772,51.772,0,0,0,192.2,120.732c0,28.129,22.716,50.163,51.714,50.163s51.715-22.035,51.715-50.163A51.773,51.773,0,0,0,243.914,69.019Z" transform="translate(-182.377 -57.875)" fill="#ffc000"/>
      <g id="Group_1377" data-name="Group 1377" transform="translate(15.737 15.604)">
        <g id="Group_1376" data-name="Group 1376" clip-path="url(#clip-path)">
          <g id="Group_1374" data-name="Group 1374" transform="translate(-7.472 -18.718)">
            <rect id="Rectangle_1677" data-name="Rectangle 1677" width="10.876" height="128.926" transform="translate(91.167 0) rotate(45.001)" fill="#fd0"/>
          </g>
          <g id="Group_1375" data-name="Group 1375" transform="translate(-2.35 -5.648)">
            <rect id="Rectangle_1678" data-name="Rectangle 1678" width="25.532" height="139.189" transform="translate(98.422) rotate(45)" fill="#fd0"/>
          </g>
        </g>
      </g>
    </g>
    <g id="Group_1379" data-name="Group 1379" transform="translate(183.025 57.509)" opacity="0.24">
      <line id="Line_5" data-name="Line 5" x2="3.449" transform="translate(0 60.413)" fill="#fff" stroke="#b95700" stroke-linecap="round" stroke-miterlimit="10" stroke-width="1.294"/>
      <line id="Line_6" data-name="Line 6" x2="3.436" y2="0.301" transform="translate(0.113 55.256)" fill="#fff" stroke="#b95700" stroke-linecap="round" stroke-miterlimit="10" stroke-width="1.294"/>
      <line id="Line_7" data-name="Line 7" x2="3.397" y2="0.599" transform="translate(0.674 50.127)" fill="#fff" stroke="#b95700" stroke-linecap="round" stroke-miterlimit="10" stroke-width="1.294"/>
      <line id="Line_8" data-name="Line 8" x2="3.332" y2="0.893" transform="translate(1.681 45.067)" fill="#fff" stroke="#b95700" stroke-linecap="round" stroke-miterlimit="10" stroke-width="1.294"/>
      <line id="Line_9" data-name="Line 9" x2="3.241" y2="1.18" transform="translate(3.125 40.114)" fill="#fff" stroke="#b95700" stroke-linecap="round" stroke-miterlimit="10" stroke-width="1.294"/>
      <line id="Line_10" data-name="Line 10" x2="3.126" y2="1.458" transform="translate(4.995 35.306)" fill="#fff" stroke="#b95700" stroke-linecap="round" stroke-miterlimit="10" stroke-width="1.294"/>
      <line id="Line_11" data-name="Line 11" x2="2.987" y2="1.725" transform="translate(7.276 30.679)" fill="#fff" stroke="#b95700" stroke-linecap="round" stroke-miterlimit="10" stroke-width="1.294"/>
      <line id="Line_12" data-name="Line 12" x2="2.825" y2="1.978" transform="translate(9.953 26.268)" fill="#fff" stroke="#b95700" stroke-linecap="round" stroke-miterlimit="10" stroke-width="1.294"/>
      <line id="Line_13" data-name="Line 13" x2="2.642" y2="2.217" transform="translate(13.003 22.108)" fill="#fff" stroke="#b95700" stroke-linecap="round" stroke-miterlimit="10" stroke-width="1.294"/>
      <line id="Line_14" data-name="Line 14" x2="2.439" y2="2.439" transform="translate(16.405 18.229)" fill="#fff" stroke="#b95700" stroke-linecap="round" stroke-miterlimit="10" stroke-width="1.294"/>
      <line id="Line_15" data-name="Line 15" x2="2.217" y2="2.642" transform="translate(20.132 14.661)" fill="#fff" stroke="#b95700" stroke-linecap="round" stroke-miterlimit="10" stroke-width="1.294"/>
      <line id="Line_16" data-name="Line 16" x2="1.978" y2="2.825" transform="translate(24.156 11.432)" fill="#fff" stroke="#b95700" stroke-linecap="round" stroke-miterlimit="10" stroke-width="1.294"/>
      <line id="Line_17" data-name="Line 17" x2="1.725" y2="2.987" transform="translate(28.445 8.566)" fill="#fff" stroke="#b95700" stroke-linecap="round" stroke-miterlimit="10" stroke-width="1.294"/>
      <line id="Line_18" data-name="Line 18" x2="1.458" y2="3.126" transform="translate(32.968 6.084)" fill="#fff" stroke="#b95700" stroke-linecap="round" stroke-miterlimit="10" stroke-width="1.294"/>
      <line id="Line_19" data-name="Line 19" x2="1.18" y2="3.241" transform="translate(37.691 4.007)" fill="#fff" stroke="#b95700" stroke-linecap="round" stroke-miterlimit="10" stroke-width="1.294"/>
      <line id="Line_20" data-name="Line 20" x2="0.893" y2="3.332" transform="translate(42.576 2.348)" fill="#fff" stroke="#b95700" stroke-linecap="round" stroke-miterlimit="10" stroke-width="1.294"/>
      <line id="Line_21" data-name="Line 21" x2="0.599" y2="3.397" transform="translate(47.587 1.122)" fill="#fff" stroke="#b95700" stroke-linecap="round" stroke-miterlimit="10" stroke-width="1.294"/>
      <line id="Line_22" data-name="Line 22" x2="0.301" y2="3.436" transform="translate(52.686 0.337)" fill="#fff" stroke="#b95700" stroke-linecap="round" stroke-miterlimit="10" stroke-width="1.294"/>
      <line id="Line_23" data-name="Line 23" y2="3.449" transform="translate(57.834)" fill="#fff" stroke="#b95700" stroke-linecap="round" stroke-miterlimit="10" stroke-width="1.294"/>
      <line id="Line_24" data-name="Line 24" x1="0.301" y2="3.436" transform="translate(62.692 0.113)" fill="#fff" stroke="#b95700" stroke-linecap="round" stroke-miterlimit="10" stroke-width="1.294"/>
      <line id="Line_25" data-name="Line 25" x1="0.599" y2="3.397" transform="translate(67.522 0.674)" fill="#fff" stroke="#b95700" stroke-linecap="round" stroke-miterlimit="10" stroke-width="1.294"/>
      <line id="Line_26" data-name="Line 26" x1="0.893" y2="3.332" transform="translate(72.288 1.681)" fill="#fff" stroke="#b95700" stroke-linecap="round" stroke-miterlimit="10" stroke-width="1.294"/>
      <line id="Line_27" data-name="Line 27" x1="1.18" y2="3.241" transform="translate(76.954 3.125)" fill="#fff" stroke="#b95700" stroke-linecap="round" stroke-miterlimit="10" stroke-width="1.294"/>
      <line id="Line_28" data-name="Line 28" x1="1.458" y2="3.126" transform="translate(81.485 4.995)" fill="#fff" stroke="#b95700" stroke-linecap="round" stroke-miterlimit="10" stroke-width="1.294"/>
      <line id="Line_29" data-name="Line 29" x1="1.725" y2="2.987" transform="translate(85.845 7.276)" fill="#fff" stroke="#b95700" stroke-linecap="round" stroke-miterlimit="10" stroke-width="1.294"/>
      <line id="Line_30" data-name="Line 30" x1="1.978" y2="2.825" transform="translate(90.002 9.953)" fill="#fff" stroke="#b95700" stroke-linecap="round" stroke-miterlimit="10" stroke-width="1.294"/>
      <line id="Line_31" data-name="Line 31" x1="2.217" y2="2.642" transform="translate(93.923 13.003)" fill="#fff" stroke="#b95700" stroke-linecap="round" stroke-miterlimit="10" stroke-width="1.294"/>
      <line id="Line_32" data-name="Line 32" x1="2.439" y2="2.439" transform="translate(97.58 16.405)" fill="#fff" stroke="#b95700" stroke-linecap="round" stroke-miterlimit="10" stroke-width="1.294"/>
      <line id="Line_33" data-name="Line 33" x1="2.642" y2="2.217" transform="translate(100.945 20.132)" fill="#fff" stroke="#b95700" stroke-linecap="round" stroke-miterlimit="10" stroke-width="1.294"/>
      <line id="Line_34" data-name="Line 34" x1="2.825" y2="1.978" transform="translate(103.991 24.156)" fill="#fff" stroke="#b95700" stroke-linecap="round" stroke-miterlimit="10" stroke-width="1.294"/>
      <line id="Line_35" data-name="Line 35" x1="2.987" y2="1.725" transform="translate(106.695 28.445)" fill="#fff" stroke="#b95700" stroke-linecap="round" stroke-miterlimit="10" stroke-width="1.294"/>
      <line id="Line_36" data-name="Line 36" x1="3.126" y2="1.458" transform="translate(109.038 32.968)" fill="#fff" stroke="#b95700" stroke-linecap="round" stroke-miterlimit="10" stroke-width="1.294"/>
      <line id="Line_37" data-name="Line 37" x1="3.241" y2="1.18" transform="translate(111 37.691)" fill="#fff" stroke="#b95700" stroke-linecap="round" stroke-miterlimit="10" stroke-width="1.294"/>
      <line id="Line_38" data-name="Line 38" x1="3.332" y2="0.893" transform="translate(112.568 42.576)" fill="#fff" stroke="#b95700" stroke-linecap="round" stroke-miterlimit="10" stroke-width="1.294"/>
      <line id="Line_39" data-name="Line 39" x1="3.397" y2="0.599" transform="translate(113.729 47.587)" fill="#fff" stroke="#b95700" stroke-linecap="round" stroke-miterlimit="10" stroke-width="1.294"/>
      <line id="Line_40" data-name="Line 40" x1="3.436" y2="0.301" transform="translate(114.475 52.686)" fill="#fff" stroke="#b95700" stroke-linecap="round" stroke-miterlimit="10" stroke-width="1.294"/>
      <line id="Line_41" data-name="Line 41" x1="3.449" transform="translate(114.799 57.834)" fill="#fff" stroke="#b95700" stroke-linecap="round" stroke-miterlimit="10" stroke-width="1.294"/>
      <line id="Line_42" data-name="Line 42" x1="3.436" y1="0.301" transform="translate(114.699 62.692)" fill="#fff" stroke="#b95700" stroke-linecap="round" stroke-miterlimit="10" stroke-width="1.294"/>
      <line id="Line_43" data-name="Line 43" x1="3.397" y1="0.599" transform="translate(114.177 67.522)" fill="#fff" stroke="#b95700" stroke-linecap="round" stroke-miterlimit="10" stroke-width="1.294"/>
      <line id="Line_44" data-name="Line 44" x1="3.332" y1="0.893" transform="translate(113.236 72.288)" fill="#fff" stroke="#b95700" stroke-linecap="round" stroke-miterlimit="10" stroke-width="1.294"/>
      <line id="Line_45" data-name="Line 45" x1="3.241" y1="1.18" transform="translate(111.882 76.954)" fill="#fff" stroke="#b95700" stroke-linecap="round" stroke-miterlimit="10" stroke-width="1.294"/>
      <line id="Line_46" data-name="Line 46" x1="3.126" y1="1.458" transform="translate(110.128 81.485)" fill="#fff" stroke="#b95700" stroke-linecap="round" stroke-miterlimit="10" stroke-width="1.294"/>
      <line id="Line_47" data-name="Line 47" x1="2.987" y1="1.725" transform="translate(107.985 85.845)" fill="#fff" stroke="#b95700" stroke-linecap="round" stroke-miterlimit="10" stroke-width="1.294"/>
      <line id="Line_48" data-name="Line 48" x1="2.825" y1="1.978" transform="translate(105.47 90.001)" fill="#fff" stroke="#b95700" stroke-linecap="round" stroke-miterlimit="10" stroke-width="1.294"/>
      <line id="Line_49" data-name="Line 49" x1="2.642" y1="2.217" transform="translate(102.602 93.923)" fill="#fff" stroke="#b95700" stroke-linecap="round" stroke-miterlimit="10" stroke-width="1.294"/>
      <line id="Line_50" data-name="Line 50" x1="2.439" y1="2.439" transform="translate(99.404 97.58)" fill="#fff" stroke="#b95700" stroke-linecap="round" stroke-miterlimit="10" stroke-width="1.294"/>
      <line id="Line_51" data-name="Line 51" x1="2.217" y1="2.642" transform="translate(95.899 100.945)" fill="#fff" stroke="#b95700" stroke-linecap="round" stroke-miterlimit="10" stroke-width="1.294"/>
      <line id="Line_52" data-name="Line 52" x1="1.978" y1="2.825" transform="translate(92.114 103.991)" fill="#fff" stroke="#b95700" stroke-linecap="round" stroke-miterlimit="10" stroke-width="1.294"/>
      <line id="Line_53" data-name="Line 53" x1="1.725" y1="2.987" transform="translate(88.078 106.695)" fill="#fff" stroke="#b95700" stroke-linecap="round" stroke-miterlimit="10" stroke-width="1.294"/>
      <line id="Line_54" data-name="Line 54" x1="1.458" y1="3.126" transform="translate(83.822 109.038)" fill="#fff" stroke="#b95700" stroke-linecap="round" stroke-miterlimit="10" stroke-width="1.294"/>
      <line id="Line_55" data-name="Line 55" x1="1.18" y1="3.241" transform="translate(79.378 111)" fill="#fff" stroke="#b95700" stroke-linecap="round" stroke-miterlimit="10" stroke-width="1.294"/>
      <line id="Line_56" data-name="Line 56" x1="0.893" y1="3.332" transform="translate(74.779 112.568)" fill="#fff" stroke="#b95700" stroke-linecap="round" stroke-miterlimit="10" stroke-width="1.294"/>
      <line id="Line_57" data-name="Line 57" x1="0.599" y1="3.397" transform="translate(70.062 113.729)" fill="#fff" stroke="#b95700" stroke-linecap="round" stroke-miterlimit="10" stroke-width="1.294"/>
      <line id="Line_58" data-name="Line 58" x1="0.301" y1="3.436" transform="translate(65.261 114.475)" fill="#fff" stroke="#b95700" stroke-linecap="round" stroke-miterlimit="10" stroke-width="1.294"/>
      <line id="Line_59" data-name="Line 59" y1="3.449" transform="translate(60.414 114.799)" fill="#fff" stroke="#b95700" stroke-linecap="round" stroke-miterlimit="10" stroke-width="1.294"/>
      <line id="Line_60" data-name="Line 60" y1="3.436" x2="0.301" transform="translate(55.256 114.699)" fill="#fff" stroke="#b95700" stroke-linecap="round" stroke-miterlimit="10" stroke-width="1.294"/>
      <line id="Line_61" data-name="Line 61" y1="3.397" x2="0.599" transform="translate(50.127 114.177)" fill="#fff" stroke="#b95700" stroke-linecap="round" stroke-miterlimit="10" stroke-width="1.294"/>
      <line id="Line_62" data-name="Line 62" y1="3.332" x2="0.893" transform="translate(45.067 113.236)" fill="#fff" stroke="#b95700" stroke-linecap="round" stroke-miterlimit="10" stroke-width="1.294"/>
      <line id="Line_63" data-name="Line 63" y1="3.241" x2="1.18" transform="translate(40.114 111.882)" fill="#fff" stroke="#b95700" stroke-linecap="round" stroke-miterlimit="10" stroke-width="1.294"/>
      <line id="Line_64" data-name="Line 64" y1="3.126" x2="1.458" transform="translate(35.306 110.128)" fill="#fff" stroke="#b95700" stroke-linecap="round" stroke-miterlimit="10" stroke-width="1.294"/>
      <line id="Line_65" data-name="Line 65" y1="2.987" x2="1.725" transform="translate(30.679 107.985)" fill="#fff" stroke="#b95700" stroke-linecap="round" stroke-miterlimit="10" stroke-width="1.294"/>
      <line id="Line_66" data-name="Line 66" y1="2.825" x2="1.978" transform="translate(26.268 105.47)" fill="#fff" stroke="#b95700" stroke-linecap="round" stroke-miterlimit="10" stroke-width="1.294"/>
      <line id="Line_67" data-name="Line 67" y1="2.642" x2="2.217" transform="translate(22.108 102.602)" fill="#fff" stroke="#b95700" stroke-linecap="round" stroke-miterlimit="10" stroke-width="1.294"/>
      <line id="Line_68" data-name="Line 68" y1="2.439" x2="2.439" transform="translate(18.229 99.404)" fill="#fff" stroke="#b95700" stroke-linecap="round" stroke-miterlimit="10" stroke-width="1.294"/>
      <line id="Line_69" data-name="Line 69" y1="2.217" x2="2.642" transform="translate(14.661 95.899)" fill="#fff" stroke="#b95700" stroke-linecap="round" stroke-miterlimit="10" stroke-width="1.294"/>
      <line id="Line_70" data-name="Line 70" y1="1.978" x2="2.825" transform="translate(11.432 92.114)" fill="#fff" stroke="#b95700" stroke-linecap="round" stroke-miterlimit="10" stroke-width="1.294"/>
      <line id="Line_71" data-name="Line 71" y1="1.725" x2="2.987" transform="translate(8.566 88.078)" fill="#fff" stroke="#b95700" stroke-linecap="round" stroke-miterlimit="10" stroke-width="1.294"/>
      <line id="Line_72" data-name="Line 72" y1="1.458" x2="3.126" transform="translate(6.084 83.822)" fill="#fff" stroke="#b95700" stroke-linecap="round" stroke-miterlimit="10" stroke-width="1.294"/>
      <line id="Line_73" data-name="Line 73" y1="1.18" x2="3.241" transform="translate(4.007 79.378)" fill="#fff" stroke="#b95700" stroke-linecap="round" stroke-miterlimit="10" stroke-width="1.294"/>
      <line id="Line_74" data-name="Line 74" y1="0.893" x2="3.332" transform="translate(2.348 74.779)" fill="#fff" stroke="#b95700" stroke-linecap="round" stroke-miterlimit="10" stroke-width="1.294"/>
      <line id="Line_75" data-name="Line 75" y1="0.599" x2="3.397" transform="translate(1.122 70.062)" fill="#fff" stroke="#b95700" stroke-linecap="round" stroke-miterlimit="10" stroke-width="1.294"/>
      <line id="Line_76" data-name="Line 76" y1="0.301" x2="3.436" transform="translate(0.337 65.261)" fill="#fff" stroke="#b95700" stroke-linecap="round" stroke-miterlimit="10" stroke-width="1.294"/>
    </g>
  </g>
</svg>
