<svg id="Component_81_1" data-name="Component 81 – 1" xmlns="http://www.w3.org/2000/svg" width="55" height="55" viewBox="0 0 55 55">
  <g id="Rectangle_1656" data-name="Rectangle 1656" fill="none" stroke="#034992" stroke-width="1">
    <rect width="55" height="55" stroke="none"/>
    <rect x="0.5" y="0.5" width="54" height="54" fill="none"/>
  </g>
  <path id="Path_1219" data-name="Path 1219" d="M26.813,60.018a10.984,10.984,0,0,1-3.158.866,5.523,5.523,0,0,0,2.418-3.041,11.089,11.089,0,0,1-3.5,1.335,5.5,5.5,0,0,0-9.373,5.015A15.616,15.616,0,0,1,1.869,58.446a5.507,5.507,0,0,0,1.7,7.342A5.5,5.5,0,0,1,1.08,65.1v.069A5.506,5.506,0,0,0,5.491,70.56a5.571,5.571,0,0,1-1.449.193,5.28,5.28,0,0,1-1.035-.1,5.5,5.5,0,0,0,5.137,3.82,11.036,11.036,0,0,1-6.831,2.351A11.692,11.692,0,0,1,0,76.746,15.548,15.548,0,0,0,8.432,79.22,15.541,15.541,0,0,0,24.081,63.572l-.018-.712A10.984,10.984,0,0,0,26.813,60.018Z" transform="translate(13.762 -40.441)" fill="#034992"/>
</svg>
